# xmcd
#
# Track frame offsets: 
#        150
#        13137
#        25150
#        41937
#        55575
#        69137
#        82962
#        96725
#        109612
#        123250
#        134625
#        151862
#        163087
#        174687
#        185200
#        198287
#
# Disc length: 2816 seconds
#
# Revision: 11
# Processed by: cddbd v1.5.2PL0 Copyright (c) Steve Scherf et al.
# Submitted via: ExactAudioCopy v0.99pb5
#
DISCID=db0afe10
DTITLE=Various Artist - Country Hits [CD 2)
DYEAR=1995
DGENRE=Country
TTITLE0=Lynn Anderson - Rose Garden
TTITLE1=Charlie Rich - The Most Beautiful Girl
TTITLE2=Johnny Cash - A Boy Named Sue
TTITLE3=Highwayman - Highwayman
TTITLE4=Jimmy Dean - Big Bad John
TTITLE5=Barbara Fairchild - Teddy Bear Song
TTITLE6=Lester Flatt and Earl Scruggs - Duelling Banjos
TTITLE7=Tammy Wynette - My Man
TTITLE8=Marty Robbins - I Walk Alone
TTITLE9=Joe Stampley - Roll On Big Mama
TTITLE10=Ricky Skaggs - Country Boy
TTITLE11=Johnny Horton - The Battle of New Orleans
TTITLE12=Moe Bandy and Joe Stampley - Just Good Ol' Boys
TTITLE13=The Statler Brothers - Flowers on the Wall
TTITLE14=Freddy Weller - Games People Play
TTITLE15=Larry Gatlin and the Gatlin Brothers - Houston
EXTD=YEAR: 1995
EXTT0=
EXTT1=
EXTT2=
EXTT3=
EXTT4=
EXTT5=
EXTT6=
EXTT7=
EXTT8=
EXTT9=
EXTT10=
EXTT11=
EXTT12=
EXTT13=
EXTT14=
EXTT15=
PLAYORDER=
